<svg xmlns="http://www.w3.org/2000/svg" version="1.1" xmlns:xlink="http://www.w3.org/1999/xlink" xmlns:svgjs="http://svgjs.dev/svgjs" width="1440" height="560" preserveAspectRatio="none" viewBox="0 0 1440 560"><g mask="url(&quot;#SvgjsMask2707&quot;)" fill="none"><rect width="1440" height="560" x="0" y="0" fill="url(&quot;#SvgjsLinearGradient2708&quot;)"></rect><circle r="85.20531643512629" cx="811.07" cy="87.26" stroke="rgba(255, 255, 255, 1)" stroke-width="1.21" stroke-dasharray="2, 2"></circle><path d="M1303.8400000000001 149.19 L1297.27 88.35L1326.2053852996926 93.11961470030747z" stroke="rgba(163, 104, 40, 1)" stroke-width="1.13" stroke-dasharray="3, 3"></path><path d="M1469.6699999999998 434.38 L1420.34 389.01L1415.1586425276043 441.5413574723956z" stroke="rgba(255, 255, 255, 1)" stroke-width="2.48" stroke-dasharray="3, 2"></path><circle r="46.666666666666664" cx="1387.93" cy="445.33" fill="rgba(255, 255, 255, 1)"></circle><rect width="187.32" height="187.32" clip-path="url(&quot;#SvgjsClipPath2709&quot;)" x="661.82" y="118.63" fill="url(&quot;#SvgjsPattern2710&quot;)" transform="rotate(219.76, 755.48, 212.29)"></rect><rect width="72" height="72" clip-path="url(&quot;#SvgjsClipPath2711&quot;)" x="259.64" y="467.53" fill="url(&quot;#SvgjsPattern2712&quot;)" transform="rotate(123.96, 295.64, 503.53)"></rect><path d="M1243.55 260.09000000000003 L1171.55 226.07L1246.6810420767738 203.9489579232263z" stroke="rgba(165, 177, 159, 1)" stroke-width="1.9" stroke-dasharray="3, 3"></path><rect width="144" height="144" clip-path="url(&quot;#SvgjsClipPath2713&quot;)" x="514.49" y="7.06" fill="url(&quot;#SvgjsPattern2714&quot;)" transform="rotate(276.85, 586.49, 79.06)"></rect><rect width="112.56" height="112.56" clip-path="url(&quot;#SvgjsClipPath2715&quot;)" x="560.27" y="409.22" fill="url(&quot;#SvgjsPattern2716&quot;)" transform="rotate(171.31, 616.55, 465.5)"></rect><rect width="174.72" height="174.72" clip-path="url(&quot;#SvgjsClipPath2717&quot;)" x="946.72" y="-51.42" fill="url(&quot;#SvgjsPattern2718&quot;)" transform="rotate(332.68, 1034.08, 35.94)"></rect><rect width="288" height="288" clip-path="url(&quot;#SvgjsClipPath2719&quot;)" x="1159.12" y="266.46" fill="url(&quot;#SvgjsPattern2720&quot;)" transform="rotate(63.29, 1303.12, 410.46)"></rect><circle r="46.666666666666664" cx="583.76" cy="50.5" stroke="rgba(255, 255, 255, 1)" stroke-width="2.89" stroke-dasharray="2, 2"></circle></g><defs><mask id="SvgjsMask2707"><rect width="1440" height="560" fill="#ffffff"></rect></mask><linearGradient x1="0%" y1="50%" x2="100%" y2="50%" gradientUnits="userSpaceOnUse" id="SvgjsLinearGradient2708"><stop stop-color="#0e2a47" offset="0"></stop><stop stop-color="rgba(211, 218, 227, 1)" offset="1"></stop></linearGradient><pattern x="0" y="0" width="13.38" height="13.38" patternUnits="userSpaceOnUse" id="SvgjsPattern2710"><path d="M6.69 1L6.69 12.38M1 6.69L12.38 6.69" stroke="rgba(163, 104, 40, 1)" fill="none" stroke-width="1"></path></pattern><clipPath id="SvgjsClipPath2709"><circle r="46.83" cx="755.48" cy="212.29"></circle></clipPath><pattern x="0" y="0" width="6" height="6" patternUnits="userSpaceOnUse" id="SvgjsPattern2712"><path d="M0 6L3 0L6 6" stroke="rgba(165, 177, 159, 1)" fill="none"></path></pattern><clipPath id="SvgjsClipPath2711"><circle r="18" cx="295.64" cy="503.53"></circle></clipPath><pattern x="0" y="0" width="6" height="6" patternUnits="userSpaceOnUse" id="SvgjsPattern2714"><path d="M3 1L3 5M1 3L5 3" stroke="rgba(165, 177, 159, 1)" fill="none" stroke-width="1.61"></path></pattern><clipPath id="SvgjsClipPath2713"><circle r="36" cx="586.49" cy="79.06"></circle></clipPath><pattern x="0" y="0" width="112.56" height="8.04" patternUnits="userSpaceOnUse" id="SvgjsPattern2716"><rect width="112.56" height="4.02" x="0" y="0" fill="rgba(255, 255, 255, 1)"></rect><rect width="112.56" height="4.02" x="0" y="4.02" fill="rgba(0, 0, 0, 0)"></rect></pattern><clipPath id="SvgjsClipPath2715"><circle r="28.14" cx="616.55" cy="465.5"></circle></clipPath><pattern x="0" y="0" width="174.72" height="7.28" patternUnits="userSpaceOnUse" id="SvgjsPattern2718"><rect width="174.72" height="3.64" x="0" y="0" fill="rgba(255, 255, 255, 1)"></rect><rect width="174.72" height="3.64" x="0" y="3.64" fill="rgba(0, 0, 0, 0)"></rect></pattern><clipPath id="SvgjsClipPath2717"><circle r="43.68" cx="1034.08" cy="35.94"></circle></clipPath><pattern x="0" y="0" width="6" height="6" patternUnits="userSpaceOnUse" id="SvgjsPattern2720"><path d="M3 1L3 5M1 3L5 3" stroke="rgba(255, 255, 255, 1)" fill="none" stroke-width="1"></path></pattern><clipPath id="SvgjsClipPath2719"><circle r="72" cx="1303.12" cy="410.46"></circle></clipPath></defs></svg>